<svg width="24" height="24" viewBox="0 0 24 24" fill="none" xmlns="http://www.w3.org/2000/svg">
<g clip-path="url(#clip0_240_10)">
<rect width="24" height="24" rx="5" fill="#0F0000"/>
<path fill-rule="evenodd" clip-rule="evenodd" d="M7.81053 2.15112C8.1826 1.77966 8.64577 1.51249 9.15364 1.37641C9.66153 1.24032 10.1963 1.24011 10.7042 1.37579C10.705 1.37599 10.7058 1.3762 10.7066 1.37641L18.5033 3.42837C19.0115 3.56454 19.4749 3.83194 19.8471 4.20375C20.2193 4.57556 20.4872 5.03871 20.6238 5.54673L22.6949 13.2761C22.8306 13.7844 22.8302 14.3195 22.6937 14.8275C22.5573 15.3356 22.2897 15.7989 21.9177 16.1709L21.9145 16.1741L16.1915 21.8464C16.191 21.8468 16.1905 21.8473 16.19 21.8478C15.8179 22.2194 15.3546 22.4867 14.8466 22.6228C14.3386 22.7589 13.8038 22.7591 13.2957 22.6234C13.2951 22.6232 13.2944 22.623 13.2937 22.6228L5.50123 20.572L5.49693 20.5708C4.98877 20.4347 4.52534 20.1673 4.15315 19.7955C3.78096 19.4237 3.51309 18.9605 3.37641 18.4525L1.30532 10.7231C1.16968 10.2148 1.17009 9.67977 1.30652 9.17168C1.44294 8.66359 1.71057 8.2003 2.08258 7.8283L2.08572 7.82515L7.81053 2.15112ZM9.67128 3.30826C9.50172 3.35369 9.34712 3.44296 9.22299 3.56708L9.21984 3.57023L3.49679 9.24252C3.49636 9.24295 3.49593 9.24338 3.4955 9.24381C3.37217 9.36759 3.28342 9.52153 3.2381 9.69031C3.19266 9.85953 3.19249 10.0377 3.23759 10.207L5.30784 17.9333C5.35343 18.1025 5.44268 18.2567 5.56664 18.3805C5.69028 18.504 5.84411 18.593 6.01281 18.6385C6.01339 18.6387 6.01398 18.6388 6.01457 18.639L13.8113 20.691C13.9809 20.7364 14.1594 20.7364 14.329 20.691C14.4985 20.6455 14.6531 20.5563 14.7772 20.4321L14.7804 20.429L20.5035 14.7567C20.5039 14.7563 20.5043 14.7558 20.5047 14.7554C20.6281 14.6316 20.7168 14.4777 20.7621 14.3089C20.8076 14.1396 20.8078 13.9612 20.7625 13.7918L18.6925 6.06635C18.647 5.89701 18.5577 5.74262 18.4336 5.61869C18.31 5.49518 18.1561 5.40624 17.9874 5.36071C17.9869 5.36055 17.9863 5.36039 17.9857 5.36023L10.1889 3.30827C10.0194 3.26284 9.84084 3.26283 9.67128 3.30826Z" fill="white"/>
<circle cx="14.5" cy="10.5" r="2.5" fill="white"/>
</g>
<defs>
<clipPath id="clip0_240_10">
<rect width="24" height="24" rx="5" fill="white"/>
</clipPath>
</defs>
</svg>
