<svg width="24" height="24" viewBox="0 0 24 24" fill="none" xmlns="http://www.w3.org/2000/svg">
<path d="M21.7286 13.5344L19.658 5.80695C19.5669 5.46827 19.3883 5.1595 19.1402 4.91163C18.8921 4.66376 18.5831 4.48549 18.2444 4.39472L10.4476 2.34275C10.1085 2.25188 9.75144 2.25188 9.41233 2.34275C9.07322 2.43361 8.764 2.61214 8.51575 2.86039L2.78955 8.53582C2.54155 8.78382 2.36312 9.09268 2.27217 9.43141C2.18122 9.77014 2.18095 10.1268 2.27138 10.4657L4.34193 18.1931C4.43305 18.5318 4.61163 18.8405 4.85976 19.0884C5.10789 19.3363 5.41684 19.5146 5.75561 19.6053L13.5524 21.6573C13.8915 21.7482 14.2485 21.7482 14.5876 21.6573C14.9268 21.5664 15.236 21.3879 15.4842 21.1397L21.2104 15.4642C21.4584 15.2162 21.6369 14.9074 21.7278 14.5686C21.8187 14.2299 21.819 13.8732 21.7286 13.5344Z" stroke="black" stroke-width="2" stroke-linecap="round" stroke-linejoin="round"/>
<circle cx="14.5" cy="10.5" r="2.5" fill="black"/>
</svg>
